<svg height="128" width="128" id="图层_2" viewBox="0 0 256 256" xmlns="http://www.w3.org/2000/svg" data-name="图层 2" style="font-size: 128px;">
    <defs>
        <style>.cls-1{fill:#010100;}.cls-2{fill:#0a0a0a;}.cls-3{fill:#0c0c0c;}.cls-4{fill:#09090a;}.cls-5{fill:#090909;}.cls-6{fill:#000001;}.cls-7{fill:#040404;}.cls-8{fill:#efc41d;}.cls-9{fill:#be9c17;}</style>
    </defs>
    <title>太阳</title>
    <g transform="matrix(0.25676452,0,0,0.25676452,-5.3837799,-3.400263)">
        <path d="M826.85,528.85C825.3,658.53,733.53,777.26,601.23,811c-164.6,42-328.07-62.48-363.16-221-27-122,12.94-224.12,111.56-298.87,180.69-136.95,432.71-30.2,472.61,185.92C825.37,494,825.39,511.57,826.85,528.85Z" class="cls-1"></path>
        <path d="M252.07,90.15c3.15-2.53,5.54-5.06,8.45-6.67,11.85-6.56,12.49-6.16,19.87,5.68,14.11,22.63,28.44,45.12,42.59,67.72,4.47,7.13,3.84,9.37-3.41,14.64-10,7.29-12.57,7.29-18.59-1.91C288.73,150.89,276.77,132,264.93,113,260.42,105.78,256.55,98.16,252.07,90.15Z" class="cls-2"></path>
        <path d="M74.26,525.61c13.86,0,27.71,0,41.56,0,4.27,0,9-.24,10.6,5,1.74,5.84,2.37,12.06-.5,17.62-.85,1.64-4.54,2.55-6.91,2.54q-42.85-.21-85.69-.89c-4.19-.06-9.11-.06-11-4.87a21.62,21.62,0,0,1,1.06-17.45c.81-1.65,4.4-2.71,6.74-2.75,14.71-.24,29.42-.12,44.13-.12Z" class="cls-3"></path>
        <path d="M143.62,343.59C119.8,319.5,96.28,294.5,74.5,267c4.61-4.17,8.27-7.75,12.2-11,3.72-3.07,7.83-3.66,11.36.28,21.2,23.73,42.32,47.53,63.79,71.68C157.34,335,152.84,340.85,143.62,343.59Z" class="cls-4"></path>
        <path d="M945.74,254.23c8.25,4.08,13.63,8.17,19.2,14.92-21.77,27.19-45.2,52.46-69.34,76.86-8.43-3.27-13.59-8.74-17.88-16.57Z" class="cls-4"></path>
        <path d="M206.92,736.35a819,819,0,0,1-79.77,56.29c-4.56,2.85-8,1.83-10.85-2.32-1.46-2.13-2.65-4.44-4.1-6.58-3.66-5.37-2.28-9.56,2.86-13,10-6.68,20.19-13.23,30.12-20.09,10.64-7.36,21.11-15,31.58-22.55C194.09,715.56,194.06,715.53,206.92,736.35Z" class="cls-2"></path>
        <path d="M317.31,935.55c-5.6-3.13-10-5.53-14.39-8.06s-5.72-5.91-3.22-10.65q20.48-38.87,40.82-77.77c2.81-5.34,6.62-7.57,12.44-4,2.19,1.34,4.75,2.06,7,3.23,4.41,2.26,6.36,5.71,4,10.45C349.44,877.94,335.64,907.57,317.31,935.55Z" class="cls-5"></path>
        <path d="M723,937.32c-3-4-6-7-7.88-10.67q-19.25-36.45-38.06-73.12c-1.48-2.86-3.88-5.74-2.19-9.34,1.63-3.43,14.13-8.92,18.17-8.16s5.17,4,6.76,7.05c13.19,25.08,26.35,50.18,39.73,75.16,2.56,4.78,1.36,8.37-2.49,11C732.88,932.2,728.22,934.38,723,937.32Z" class="cls-5"></path>
        <path d="M786.18,90c-.74,9-5.62,15.23-9.61,21.68-12.66,20.45-25.72,40.66-38.71,60.91-2.27,3.54-4.8,8-9.9,5.77-5.42-2.41-11.12-5.28-13.76-11-.83-1.79.38-5.15,1.63-7.18q23-37.29,46.35-74.37c2.6-4.12,6.56-5.38,11-3.11S782,87.68,786.18,90Z" class="cls-5"></path>
        <path d="M545.27,40c3.82,8.16,2.69,16,2.43,23.59-.83,24-2.13,48.07-3.35,72.1-.21,4.19-.18,9.35-5.73,9.91-5.89.61-12.27.95-17.4-2.71-1.61-1.14-2.23-4.65-2.15-7q1.44-43.78,3.29-87.56c.21-4.88,3-7.94,8-8.19S540.5,40,545.27,40Z" class="cls-5"></path>
        <path d="M846.51,719.44c26.08,17.92,51.6,35.39,77,53,7,4.82,7.22,6.87,2.74,14.9-.84,1.5-1.92,2.87-2.73,4.38-2.54,4.69-6.6,5.67-10.75,3.16-26.49-16.09-51.59-34.21-76.18-53-4.19-3.2-3.71-7.44-.55-11.18S843,723.19,846.51,719.44Z" class="cls-5"></path>
        <path d="M544.92,925.13c0,16.34.16,32.68-.07,49-.12,7.73-2.38,9.23-11.81,9.39-9.59.17-12.31-1.4-12.4-8.65q-.6-49-.7-98c0-7.81,2.13-9.18,11.77-9.33,10.68-.16,12.3,1,12.46,11.17.25,15.47.06,30.95.06,46.43Z" class="cls-6"></path>
        <path d="M968.74,528.53c10.65-.64,23.56-1.53,36.47-2.16,10-.5,11.5,1,12.5,11.53,1,10.7-.31,13-10,13.26q-42.66,1-85.34,1.15c-9.13,0-14.45-12.44-8.84-20.44a9,9,0,0,1,6.37-3.19C935.43,528.41,951,528.53,968.74,528.53Z" class="cls-7"></path>
        <path d="M454.74,754.08c-2.15-4.82-4.66-9.29-10.21-11s-11,1.22-11.73,6.73c-.75,5.95-.68,12-1.65,17.91-.57,3.4-2.9,6.67-6.77,6.71-4.68,0-8.69-2.67-9.71-7.14-1.14-5-.8-10.32-1-15.51-.31-6.91-.28-13.84-.9-20.72a7.89,7.89,0,0,0-6.76-7c-4.78-.89-9.25,1.41-10.34,5.79-2.07,8.28-2.8,16.89-4.3,26.76-8.29.28-13.7-5.52-19.71-9.52-4-2.65-5-6.8-3.9-11.45,1.64-6.74,3.63-13.41,4.79-20.23a37.5,37.5,0,0,0,0-12.77c-1-5.3-3.82-9.69-9.91-10.48-5.41-.71-10.22,4-10.09,12.09.12,7.18-1.78,13.52-3.39,20.32-21.07-10-24.37-18.06-15.73-37.34.7-1.54,2.14-2.74,3-4.25,2.4-4.31,1.9-8.3-1.95-11.53-3.55-3-7.4-3.31-12.06-2.22-7.69,1.82-7.59,10.94-14.81,14.37a63.37,63.37,0,0,1-16.17-25.38c5.49-8.28,14.5-9.86,22-13.88,5.44-2.91,7.31-8,5.1-12.88a10.37,10.37,0,0,0-13-5.43c-4.91,1.65-9.64,3.87-14.43,5.9-3.86,1.63-8.09,5-11.86,1.46a22,22,0,0,1-7-16.24c0-2,2.41-4.79,4.43-5.91,7.57-4.17,15.49-7.7,23.17-11.67,4.17-2.15,6.42-5.82,5.95-10.56-.43-4.3-6.81-7.78-12.11-7.63-9.21.28-15.91,6.51-23.95,9.51-3.95,1.48-6.45-.68-7.51-4.55-3-10.82-1-15.31,8.4-17.9,8.36-2.29,16.93-3.78,25.3-6,5.9-1.58,9.05-6.69,7.56-11.54-1.83-5.94-6.5-8-12.08-7.21-11,1.57-21.92,3.7-32.58,5.55-3.84-6.21-3-12.42-3.1-18.42-.11-11.94.07-11.84,11.66-16.07,9.75-3.57,19.46-7.25,29.05-11.22,4.35-1.8,6.72-5.45,5.8-10.36s-6.9-9.43-11.64-8.14c-8.31,2.26-16.34,5.52-24.53,8.22-2.52.83-5.54.82-6.83-1.73a12.15,12.15,0,0,1-.87-7.21c1-5.83,5.53-8.56,10.79-9.91,8.4-2.15,16.92-3.81,25.29-6.06,5.89-1.59,9.35-7,7.82-11.49-1.94-5.73-6.58-8.06-12.09-7.73-5.15.3-10.21,1.87-15.33,2.72-3.61.6-7.51.15-7.45-4.32.05-3.15,1.47-7.09,3.69-9.16s6.16-2.7,9.45-3.25c8.56-1.41,17.22-2.19,25.75-3.73a22.3,22.3,0,0,0,9.32-4c3.7-2.83,4.76-7,2.83-11.58-1.5-3.54-4.57-5.6-8.09-5.33-7.76.6-15.45,2.06-23.2,2.9-3.23.35-5.53-4.49-4.11-7.72,1.79-4.09,4.23-7.69,8.3-9.58a110.2,110.2,0,0,1,12.19-4.46c19.69-6.5,20.12-8,6.92-25.44,3.11-3.9,7.6-2.27,11.52-2.91,12.41-2,15-5.07,10.47-17-2.47-6.43-.67-9.61,3.16-13.39a262.59,262.59,0,0,1,81.6-54.79c131.12-56.29,284-5.91,350.93,117.19,79.77,146.7,11,333.9-154.45,386.7-14.25,4.55-14.33,4.55-24.51-8-3.08-3.79-6.69-5.17-11.33-3.89-3.76,1-5.77,4.19-6.5,7.46s.44,6.88,0,10.25-8.37,5.37-10.83,3a9.67,9.67,0,0,1-1.6-2c-.87-1.48-1.66-3-2.45-4.56-2.88-5.52-5.9-11.09-13.62-8.81-6.26,1.84-6.46,7.31-6.69,12.58a8.1,8.1,0,0,1-.23,2.58c-1,2.5-2.8,4.79-5.57,4.06-2.2-.58-5.27-2.34-5.72-4.14-1.24-5-1.5-10.17-1.79-15.31-.31-5.69-2.05-10.31-8.24-11.39-5.66-1-10.25,3.43-11.73,11.25-.8,4.24-.73,8.63-1.34,12.91-.36,2.57-1.68,5.42-4.64,4.88-3.24-.6-7.66-1.65-9.06-4-4.06-6.81-4.06-14.91-4.51-22.7-.27-4.58-1.64-9.09-5.68-11-5.18-2.46-10.13-.6-13.84,3.93C458.25,762.05,457,757.08,454.74,754.08Z" class="cls-8"></path>
        <path d="M454.74,754.08l9.08,4.94c.14,6.75.32,13.5.43,20.25.06,3.7-1.29,6.72-5.41,6.74-4.7,0-9-2.74-8.69-7.21C450.79,770.49,453.11,762.31,454.74,754.08Z" class="cls-9"></path>
    </g>
</svg>