<svg id="图层_1" style="font-size: 128px;" xmlns="http://www.w3.org/2000/svg" xml:space="preserve" width="128" viewBox="0 0 256 256" xmlns:xlink="http://www.w3.org/1999/xlink" y="0px" height="128" version="1.1" x="0px">
    <style type="text/css">
	.st0{fill:#F64D6A;}
	.st1{fill:#FBCA52;}
	.st2{fill:#FEC952;}
</style>
    <g transform="matrix(0.34570769,0,0,0.34570769,-49.467313,-53.74026)">
        <g>
            <path class="st0" d="M883.5,517.02L883.5,517.02c-0.16-6.87-0.5-13.68-1.03-20.45c-1.74-22.31-5.45-44.07-10.99-65.1
		c-1.48-5.67-3.1-11.3-4.85-16.86c-6.08-19.39-13.72-38.1-22.78-55.96c-6.39-12.62-13.47-24.81-21.22-36.54
		c-4.11-6.25-8.42-12.37-12.91-18.35c-48.67-64.9-118.15-113.28-198.55-135.24c-31.16-8.52-63.96-13.07-97.83-13.07
		c-55.9,0-108.9,12.39-156.41,34.56c-74.99,35-136.3,94.38-173.75,167.95c-24.08,47.3-38.3,100.47-39.93,156.8
		c-0.11,3.64-0.16,7.29-0.16,10.95c0,1.55,0.01,3.1,0.04,4.64c0.64,52.89,12.38,103.11,33,148.44c7.92,17.44,17.17,34.16,27.6,50.03
		c13.49,20.53,28.98,39.64,46.17,57.04c27.6,27.96,59.63,51.54,94.94,69.63c6.76,3.45,13.62,6.71,20.61,9.75h0.01
		c14.43,6.3,29.33,11.7,44.64,16.13c32.77,9.5,67.41,14.59,103.24,14.59c0.42,0,0.83,0,1.25-0.01
		c139.23-0.45,260.37-77.76,323.19-191.72c29.21-52.94,45.82-113.79,45.82-178.52C883.6,522.8,883.57,519.91,883.5,517.02z
		 M856.58,541.35c-0.82,18.25-3.07,36.13-6.64,53.52c-0.11,0.56-0.23,1.12-0.34,1.68c-2.78,13.28-6.34,26.28-10.62,38.95
		c-4.36,12.94-9.48,25.54-15.29,37.74c-1.15,2.43-2.34,4.86-3.56,7.26c-0.68,1.34-1.37,2.68-2.07,4.01
		c-1.8,3.45-3.66,6.87-5.57,10.25c-1.32,2.34-2.68,4.66-4.05,6.96c-0.01,0-0.01,0-0.01,0.01c-1.8,3.01-3.64,5.98-5.54,8.93
		c-7.11,11.12-14.85,21.8-23.17,31.99c-1.3,1.61-2.63,3.2-3.97,4.79c-1.73,2.04-3.48,4.06-5.25,6.06s-3.57,3.98-5.38,5.93
		c-56.53,60.85-134.86,101.18-222.57,108.56c-9.63,0.82-19.37,1.23-29.21,1.23c-22.25,0-44.01-2.12-65.09-6.16
		c-4.86-0.93-9.69-1.96-14.47-3.1c-1.14-0.27-2.29-0.55-3.43-0.84c-3.43-0.85-6.84-1.75-10.23-2.71c-1.22-0.34-2.43-0.69-3.64-1.05
		c-1.21-0.35-2.41-0.71-3.61-1.08h-0.01c-13.06-3.98-25.79-8.72-38.13-14.18c-1.14-0.5-2.27-1-3.4-1.52
		c-1.13-0.51-2.26-1.03-3.39-1.56c-0.07-0.03-0.15-0.07-3.5-1.66c-1.09-0.53-2.18-1.06-3.26-1.6c-2.23-1.1-4.44-2.22-6.64-3.38
		c-5.99-3.11-11.86-6.41-17.63-9.88c-1.36-0.8-2.71-1.62-4.05-2.45c-0.11-0.07-0.21-0.14-0.32-0.2c-0.21-0.13-0.42-0.26-0.63-0.4
		c-1.78-1.1-3.55-2.23-5.31-3.38c-0.11-0.06-0.21-0.13-0.32-0.2c-0.04-0.03-0.09-0.06-0.13-0.08c-0.94-0.61-1.87-1.22-2.8-1.85
		c-0.97-0.64-1.95-1.3-2.91-1.95c-0.11-0.07-0.21-0.14-0.32-0.21c-1.29-0.88-2.58-1.77-3.85-2.67c-0.48-0.33-0.96-0.67-1.44-1.01
		c-0.27-0.19-0.53-0.38-0.8-0.57c-0.59-0.42-1.16-0.84-1.74-1.26c-1.34-0.95-2.67-1.93-3.99-2.92c-0.08-0.07-0.17-0.13-0.25-0.19
		c-0.03-0.03-0.07-0.05-0.1-0.08c-0.69-0.5-1.37-1.01-2.05-1.54c-2.01-1.51-4.01-3.06-5.99-4.65c-1.2-0.94-2.39-1.9-3.58-2.88
		c-0.37-0.31-0.74-0.61-1.11-0.91c-1.57-1.28-3.13-2.58-4.68-3.92c-0.7-0.58-1.39-1.17-2.08-1.79c-1.28-1.1-2.55-2.22-3.81-3.35
		c-0.57-0.51-1.15-1.02-1.72-1.54c-0.01-0.01-0.02-0.02-0.03-0.02c-0.73-0.66-1.47-1.33-2.19-2c-0.96-0.88-1.92-1.77-2.86-2.66
		c-0.11-0.11-0.23-0.21-0.34-0.31c-1.49-1.41-2.97-2.84-4.43-4.27c-0.54-0.52-1.08-1.05-1.61-1.59l-0.68-0.68
		c-0.01-0.01-0.03-0.03-0.04-0.04c-0.34-0.33-0.68-0.66-1.01-1c-0.38-0.39-0.77-0.77-1.14-1.16c-0.56-0.56-1.11-1.12-1.66-1.69
		c-0.59-0.61-1.17-1.22-1.76-1.83c-1.12-1.18-2.24-2.35-3.35-3.54c-0.62-0.67-1.23-1.34-1.85-2.01c-1.08-1.16-2.14-2.34-3.18-3.52
		c-0.61-0.67-1.22-1.35-1.81-2.04c-1.07-1.21-2.13-2.44-3.17-3.67c-0.57-0.65-1.12-1.3-1.66-1.96c-0.57-0.67-1.14-1.35-1.7-2.04
		c-0.58-0.68-1.14-1.36-1.68-2.05c-0.44-0.54-0.88-1.07-1.32-1.62c-0.77-0.94-1.52-1.9-2.27-2.85c-0.75-0.95-1.51-1.91-2.25-2.88
		c-0.21-0.28-0.43-0.56-0.65-0.85c-0.98-1.28-1.95-2.57-2.91-3.86c-0.49-0.66-0.98-1.32-1.46-1.99c-0.74-1-1.46-2-2.18-3.01
		c-0.53-0.74-1.06-1.48-1.58-2.23c-0.06-0.07-0.11-0.15-0.16-0.22c-0.06-0.09-0.12-0.17-0.18-0.26c-0.87-1.24-1.73-2.48-2.57-3.73
		c-0.51-0.72-1-1.44-1.47-2.17c-1.6-2.37-3.17-4.77-4.7-7.18c-0.04-0.07-0.09-0.15-0.14-0.22c-0.27-0.43-0.53-0.86-0.8-1.29
		c-0.57-0.88-1.11-1.76-1.65-2.65c-0.6-0.96-1.19-1.93-1.76-2.9c-0.53-0.86-1.04-1.72-1.55-2.58c-0.86-1.45-1.7-2.9-2.53-4.37
		c-0.23-0.39-0.45-0.78-0.67-1.18c-0.33-0.58-0.66-1.16-0.98-1.74c-0.46-0.81-0.9-1.62-1.34-2.43c-0.23-0.41-0.46-0.83-0.68-1.24
		c-0.33-0.61-0.65-1.23-0.98-1.84c-0.35-0.64-0.69-1.28-1.02-1.93c-0.34-0.64-0.68-1.29-1.02-1.94c-0.05-0.1-0.1-0.19-0.15-0.29
		c-0.94-1.82-1.87-3.65-2.76-5.49c-2.34-4.71-4.57-9.49-6.68-14.33c0-0.01-0.01-0.02-0.01-0.03c-0.01-0.03-0.02-0.05-0.03-0.08
		c-0.46-1.03-0.91-2.07-1.35-3.11c-0.39-0.92-0.78-1.85-1.16-2.78c-0.4-0.95-0.79-1.9-1.17-2.85c-0.02-0.06-0.04-0.12-0.07-0.17
		c-0.39-0.96-0.78-1.93-1.15-2.9c-0.49-1.23-0.97-2.46-1.42-3.69c-1.09-2.84-2.13-5.69-3.12-8.56c-2-5.67-3.83-11.41-5.51-17.22
		c-0.42-1.4-0.82-2.81-1.2-4.23c-0.3-1.04-0.58-2.08-0.85-3.13c-0.01-0.02-0.01-0.04-0.02-0.05c-0.29-1.04-0.56-2.09-0.82-3.14
		c-0.3-1.16-0.6-2.32-0.88-3.48c-0.23-0.98-0.47-1.95-0.7-2.93c-2.24-9.47-4.08-19.1-5.51-28.86c0-0.02-0.01-0.05-0.01-0.07
		c-0.01-0.05-0.02-0.11-0.02-0.16c-0.16-1-0.3-2-0.43-3.01c-0.02-0.19-0.05-0.38-0.08-0.56c-0.13-0.97-0.26-1.94-0.38-2.91
		c-0.28-2.22-0.54-4.45-0.77-6.69c-1.06-9.8-1.69-19.73-1.89-29.76c-0.01-0.09-0.01-0.18-0.01-0.27c-0.04-2.29-0.07-4.59-0.07-6.89
		c0-1.37,0.01-2.73,0.03-4.1c0-0.88,0.02-1.77,0.05-2.65c0.01-0.56,0.02-1.13,0.03-1.7c0.01-0.9,0.04-1.8,0.07-2.7
		c0.02-0.78,0.05-1.55,0.09-2.33c0.01-0.52,0.04-1.04,0.06-1.56c0.01-0.27,0.03-0.54,0.04-0.82c0.05-1.33,0.12-2.65,0.19-3.98
		c1.3-22.98,4.88-45.37,10.5-66.92c3.86-14.9,8.72-29.4,14.48-43.44c0.12-0.28,0.24-0.56,0.35-0.85c0.54-1.34,1.1-2.67,1.68-4
		c1.93-4.53,3.96-9.01,6.09-13.43c0.55-1.15,1.11-2.3,1.67-3.44c0.45-0.91,0.9-1.81,1.36-2.71c1.02-2.04,2.07-4.07,3.15-6.08
		c4.86-9.19,10.13-18.13,15.8-26.79c2.46-3.8,5.01-7.53,7.64-11.22c0.28-0.4,0.56-0.8,0.85-1.19c3.61-5.05,7.36-10,11.24-14.83
		c1.41-1.77,2.85-3.53,4.31-5.27c1.81-2.18,3.66-4.34,5.54-6.47c1.11-1.28,2.24-2.55,3.39-3.81c4.57-5.07,9.3-10,14.18-14.78
		c2.38-2.35,4.8-4.66,7.26-6.94c3.32-3.08,6.7-6.09,10.14-9.03c0.58-0.5,1.16-0.99,1.74-1.49c0.57-0.49,1.15-0.97,1.73-1.45
		c0.55-0.46,1.11-0.92,1.66-1.38c0.04-0.04,0.09-0.07,0.13-0.11c1.08-0.89,2.17-1.77,3.26-2.63c0.63-0.52,1.27-1.03,1.92-1.54
		c1.78-1.41,3.58-2.81,5.39-4.17c0.38-0.29,0.76-0.58,1.15-0.87c3.25-2.46,6.55-4.85,9.9-7.18c6.42-4.49,13.01-8.77,19.75-12.81
		c0.58-0.36,1.16-0.7,1.74-1.04c1.35-0.81,2.7-1.6,4.06-2.38c0.04-0.02,0.07-0.04,0.11-0.06c0.04-0.02,0.07-0.04,0.11-0.06
		c1.92-1.11,3.86-2.19,5.81-3.26c0.02-0.01,0.03-0.02,0.05-0.03c0.05-0.03,0.1-0.05,0.15-0.08c1.39-0.76,2.79-1.52,4.19-2.25
		c0.57-0.3,1.13-0.61,1.71-0.91c2.04-1.07,4.09-2.11,6.16-3.14c0.11-0.05,0.22-0.11,0.33-0.16c1.27-0.63,2.55-1.25,3.83-1.87
		c0.85-0.41,1.69-0.81,2.54-1.2c1.19-0.57,2.39-1.12,3.6-1.67c0.71-0.33,1.43-0.66,2.16-0.98c0.16-0.07,0.32-0.14,0.48-0.21
		c1.61-0.72,3.24-1.43,4.87-2.13c0.33-0.14,0.65-0.28,0.98-0.41c17.89-7.59,36.57-13.7,55.87-18.18c25.07-5.82,51.19-8.9,78.03-8.9
		c11.12,0,22.12,0.53,32.97,1.56c13.95,1.33,27.65,3.49,41.07,6.44c48,10.54,92.23,31.11,130.4,59.42c1.04,0.77,2.07,1.54,3.09,2.31
		c4.09,3.1,8.11,6.3,12.05,9.58c3.95,3.28,7.82,6.65,11.61,10.1c17.06,15.52,32.55,32.75,46.21,51.4c2.07,2.82,4.1,5.69,6.08,8.58
		c1.99,2.89,3.93,5.81,5.83,8.76c3.95,6.14,7.7,12.42,11.25,18.82c0.11,0.21,0.23,0.43,0.35,0.65c0.66,1.17,1.31,2.35,1.93,3.53
		c0.24,0.45,0.49,0.9,0.73,1.36c0.74,1.38,1.46,2.76,2.18,4.15c0.83,1.63,1.66,3.27,2.47,4.92c0.81,1.64,1.61,3.3,2.4,4.96
		c8.71,18.34,15.83,37.57,21.2,57.51c0.7,2.6,1.37,5.21,2.01,7.83c0.64,2.62,1.25,5.24,1.83,7.88v0.01c0.31,1.42,0.61,2.84,0.9,4.26
		c4.39,21.37,6.8,43.45,7.02,66.06c0.01,1.16,0.02,2.33,0.02,3.5C856.94,530.89,856.82,536.14,856.58,541.35z"></path>
            <g>
                <path class="st0" d="M698.47,620.66L433.79,859.95c25.53,6.06,52.16,9.28,79.55,9.28c184.49,0,335-145.4,343.23-327.86
			l-83.55,75.54C751.85,636.05,720.59,636.97,698.47,620.66z"></path>
                <path class="st0" d="M435.31,190.93c-2.29,0.53-4.56,1.09-6.83,1.66c-0.73,0.18-1.45,0.38-2.17,0.57
			c-1.54,0.4-3.08,0.81-4.61,1.23c-0.86,0.24-1.72,0.49-2.58,0.73c-1.39,0.39-2.77,0.79-4.15,1.2c-0.91,0.27-1.82,0.55-2.73,0.83
			c-1.32,0.41-2.64,0.81-3.95,1.24c-0.93,0.3-1.85,0.6-2.78,0.91c-1.29,0.43-2.57,0.85-3.85,1.29c-0.93,0.32-1.86,0.64-2.78,0.97
			c-1.27,0.45-2.54,0.9-3.8,1.37c-0.92,0.34-1.84,0.68-2.75,1.02c-1.27,0.48-2.53,0.96-3.79,1.46c-0.9,0.35-1.79,0.7-2.68,1.06
			c-1.28,0.51-2.56,1.04-3.83,1.57c-0.86,0.36-1.72,0.71-2.57,1.07c-0.33,0.14-0.65,0.28-0.98,0.42c2.16,3.88,3.67,7.99,4.58,12.22
			c9.55,0.47,18.92,4.62,25.79,12.34c13.5,15.16,12.24,38.37-2.82,51.99l-93.68,84.69c-7.07,6.4-15.94,9.55-24.77,9.55
			c-10.18,0-20.31-4.18-27.62-12.39c-2.18-2.45-3.97-5.12-5.39-7.91l-6.7,5.57c-8.36,6.95-18.55,10.37-28.7,10.37
			c-4.76,0-9.52-0.75-14.07-2.25c-0.57,1.14-1.13,2.28-1.69,3.44c-0.25,0.53-0.5,1.06-0.75,1.59c-2.47,5.21-4.81,10.49-7.02,15.85
			c-0.12,0.28-0.24,0.56-0.35,0.84c-0.62,1.5-1.21,3.01-1.8,4.53c-0.24,0.62-0.49,1.23-0.73,1.86c-0.55,1.42-1.08,2.86-1.61,4.29
			c-0.27,0.72-0.54,1.43-0.8,2.15c-0.51,1.4-1,2.81-1.49,4.21c-0.26,0.76-0.53,1.51-0.79,2.27c-0.48,1.4-0.94,2.81-1.4,4.21
			c-0.25,0.77-0.5,1.54-0.75,2.31c-0.45,1.42-0.89,2.83-1.32,4.26c-0.23,0.77-0.46,1.53-0.69,2.3c-0.43,1.45-0.85,2.89-1.26,4.35
			c-0.21,0.74-0.41,1.48-0.61,2.21c-0.41,1.5-0.82,2.99-1.21,4.5c-0.18,0.68-0.34,1.36-0.52,2.04c-0.4,1.58-0.8,3.15-1.17,4.74
			c-0.13,0.55-0.25,1.09-0.38,1.64c-0.4,1.73-0.8,3.45-1.18,5.19c-0.04,0.19-0.08,0.39-0.12,0.58c-1.8,8.39-3.3,16.9-4.48,25.5
			c-0.04,0.26-0.08,0.53-0.11,0.79c-0.25,1.83-0.47,3.68-0.69,5.52c-0.04,0.38-0.1,0.76-0.14,1.14c-0.02,0.15-0.03,0.31-0.05,0.47
			c-0.12,1.08-0.24,2.17-0.35,3.25c-0.13,1.27-0.26,2.54-0.37,3.81c-0.09,0.93-0.17,1.86-0.25,2.79c-0.16,1.84-0.3,3.69-0.42,5.54
			c-0.05,0.73-0.1,1.46-0.14,2.19c-0.04,0.57-0.06,1.14-0.09,1.71l72.36-65.43c6.22-5.62,14.03-8.4,21.8-8.4
			c8.88,0,17.71,3.61,24.13,10.71c11.64,12.88,11.06,32.51-1.02,44.69l-51.41,46.48c-13.32,12.04-14.36,32.6-2.32,45.92l2,2.21
			c12.04,13.32,32.6,14.36,45.92,2.32l56.92-51.46c5.01-2.88,10.6-4.31,16.18-4.31c8.87,0,17.7,3.61,24.12,10.71
			c4.93,5.45,7.66,12.11,8.27,18.9l10.48-9.47c14.5-13.11,36.88-11.98,49.98,2.52c13.11,14.49,11.98,36.87-2.51,49.98l-12.45,11.25
			c-6.77,6.12-15.25,9.14-23.71,9.14c-9.66,0-19.28-3.93-26.27-11.66c-5.72-6.32-8.72-14.14-9.1-22.03l-104.8,94.75
			c-6.22,5.62-14.02,8.39-21.79,8.39c-8.87,0-17.71-3.61-24.13-10.71c-12.04-13.32-11.01-33.88,2.31-45.92l-28.3,25.58
			c0.45,1.07,0.91,2.14,1.37,3.2c0.36,0.83,0.74,1.66,1.11,2.49c0.51,1.15,1.03,2.29,1.55,3.43c0.4,0.86,0.79,1.72,1.2,2.57
			c0.52,1.11,1.05,2.22,1.59,3.32c0.41,0.85,0.82,1.7,1.24,2.55c0.56,1.13,1.12,2.25,1.69,3.37c0.41,0.81,0.81,1.61,1.23,2.41
			c0.67,1.29,1.35,2.58,2.04,3.87c0.33,0.61,0.64,1.23,0.97,1.84c0.98,1.82,1.98,3.62,3,5.42c0.44,0.79,0.9,1.57,1.35,2.35
			c0.61,1.07,1.23,2.14,1.85,3.2c0.51,0.86,1.03,1.72,1.54,2.58c0.58,0.97,1.17,1.94,1.76,2.9c0.54,0.88,1.09,1.77,1.65,2.64
			c0.27,0.43,0.53,0.87,0.81,1.29c0.23,0.37,0.48,0.73,0.71,1.1c0.91,1.43,1.84,2.85,2.77,4.26c0.45,0.68,0.9,1.36,1.36,2.04
			c0.97,1.45,1.96,2.9,2.96,4.33c0.42,0.61,0.84,1.22,1.26,1.82c1.15,1.64,2.32,3.27,3.5,4.88c0.28,0.38,0.55,0.77,0.83,1.15
			c1.5,2.04,3.02,4.06,4.56,6.07c0.02,0.02,0.03,0.04,0.05,0.07c1.48,1.93,2.99,3.84,4.52,5.73c0.44,0.54,0.88,1.08,1.32,1.62
			c1.12,1.37,2.24,2.74,3.38,4.09c0.55,0.66,1.11,1.31,1.67,1.96c1.05,1.23,2.1,2.45,3.17,3.67c0.6,0.68,1.2,1.36,1.81,2.04
			c1.05,1.18,2.11,2.35,3.18,3.52c0.61,0.67,1.23,1.34,1.85,2.01c1.11,1.19,2.23,2.37,3.35,3.54c0.59,0.61,1.17,1.23,1.76,1.84
			c0.93,0.95,1.87,1.89,2.81,2.84l84.82-76.68c5.82-5.27,13.13-7.86,20.41-7.86c8.3,0,16.58,3.37,22.59,10.02
			c11.27,12.47,10.3,31.72-2.17,43l-17.38,15.71l0.06,0.07l-2.58,2.33c-10.03,9.07-10.81,24.55-1.74,34.57
			c9.06,10.03,24.54,10.81,34.57,1.75l139.18-130.11l50.5-45.65l-21.2-23.45c-13.51-14.94-12.34-37.99,2.59-51.5l25.19-22.77
			c-14.43,7.06-32.47,3.75-43.32-9.41c-12.23-14.82-10.13-36.8,4.13-49.69l48.54-43.88c-5.09,4.6-11.48,6.87-17.84,6.87
			c-7.27,0-14.5-2.95-19.76-8.77c-10.37-10.36-9.95-26.89,0.92-36.72l25.36-22.93l-0.17-0.18l9.23-8.34
			c7.13-6.44,10.75-15.32,10.75-24.23c0-7.8-2.78-15.64-8.43-21.88c-12.09-13.38-32.74-14.42-46.11-2.33l-107.35,97.05
			c-6.45,5.83-14.76,8.73-23.07,8.73c-8.9,0-17.8-3.33-24.39-9.92c-12.74-12.74-12.23-33.05,1.13-45.13l173.16-156.55
			c-23.84-5.24-48.61-8-74.03-8C486.5,182.03,460.38,185.11,435.31,190.93z"></path>
                <path class="st0" d="M823.96,378.57c-6.29-13.29-13.44-26.09-21.33-38.38l-5.15,4.65l-79.67,72.02l-63.71,57.6l0.03,0.03
			c-6.97,6.9-10.52,16.06-10.52,25.24c0,8.49,3.03,17.01,9.17,23.8c13.16,14.55,35.62,15.69,50.17,2.53l15.9-14.38
			c2.75-0.66,5.55-0.99,8.36-0.99c9.75,0,19.47,3.97,26.53,11.78c2.69,2.97,4.77,6.28,6.28,9.76l88.97-80.44
			c-1.16-5.29-2.43-10.53-3.83-15.72C839.79,416.14,832.67,396.91,823.96,378.57z"></path>
            </g>
            <path class="st1" d="M765.12,759.43c1.81-1.95,3.61-3.93,5.38-5.93s3.52-4.02,5.25-6.06c1.34-1.59,2.67-3.18,3.97-4.79
		c8.32-10.19,16.06-20.87,23.17-31.99c1.9-2.95,3.74-5.92,5.54-8.93c0-0.01,0-0.01,0.01-0.01c1.37-2.3,2.73-4.62,4.05-6.96
		c1.91-3.38,3.77-6.8,5.57-10.25l-9.49-9.49c-9.44,21.14-25.68,50.85-53.17,80.38c-25.25,27.14-51.73,45.23-73.29,57.11l-3.25-3.24
		c-21.42-21.43-56.17-21.43-77.59,0l-58.72,58.72C630.26,860.61,708.59,820.28,765.12,759.43z"></path>
            <path class="st2" d="M222.98,680.26c6.42,7.1,15.26,10.71,24.13,10.71c7.77,0,15.57-2.77,21.79-8.39l104.8-94.75
		c0.38,7.89,3.38,15.71,9.1,22.03c6.99,7.73,16.61,11.66,26.27,11.66c8.46,0,16.94-3.02,23.71-9.14l12.45-11.25
		c14.49-13.11,15.62-35.49,2.51-49.98c-13.1-14.5-35.48-15.63-49.98-2.52l-10.48,9.47c-0.61-6.79-3.34-13.45-8.27-18.9
		c-6.42-7.1-15.25-10.71-24.12-10.71c-5.58,0-11.17,1.43-16.18,4.31l-56.92,51.46c-13.32,12.04-33.88,11-45.92-2.32l-2-2.21
		c-12.04-13.32-11-33.88,2.32-45.92l51.41-46.48c12.08-12.18,12.66-31.81,1.02-44.69c-6.42-7.1-15.25-10.71-24.13-10.71
		c-7.77,0-15.58,2.78-21.8,8.4l-72.36,65.43c-0.08,1.33-0.16,2.67-0.22,4.01c-0.01,0.27-0.03,0.54-0.04,0.82
		c-0.09,2.19-0.16,4.39-0.21,6.58c-0.01,0.57-0.03,1.14-0.04,1.71c-0.04,2.24-0.07,4.49-0.07,6.75c0,2.3,0.03,4.6,0.07,6.89
		c0.01,0.74,0.04,1.49,0.06,2.23c0.04,1.55,0.09,3.1,0.15,4.64c0.03,0.87,0.08,1.74,0.12,2.6c0.07,1.43,0.14,2.85,0.22,4.28
		c0.05,0.89,0.11,1.79,0.17,2.68c0.09,1.42,0.2,2.83,0.31,4.24c0.07,0.87,0.14,1.73,0.21,2.6c0.13,1.51,0.28,3.01,0.43,4.51
		c0.08,0.75,0.14,1.5,0.22,2.25c0.22,2.1,0.47,4.19,0.73,6.28c0.02,0.14,0.03,0.28,0.05,0.42c0.28,2.22,0.59,4.43,0.91,6.64
		c0.11,0.72,0.22,1.44,0.33,2.16c0.23,1.49,0.46,2.99,0.71,4.47c0.14,0.85,0.29,1.69,0.44,2.54c0.24,1.36,0.48,2.72,0.73,4.08
		c0.16,0.88,0.33,1.75,0.5,2.62c0.26,1.34,0.53,2.68,0.81,4.02c0.18,0.85,0.35,1.7,0.54,2.55c0.3,1.41,0.62,2.82,0.94,4.23
		c0.17,0.75,0.34,1.51,0.52,2.26c0.44,1.87,0.9,3.72,1.37,5.58c0.07,0.28,0.14,0.56,0.21,0.84c0.54,2.11,1.11,4.22,1.69,6.32
		c0.2,0.71,0.4,1.41,0.61,2.12c0.4,1.4,0.8,2.81,1.22,4.2c0.25,0.83,0.5,1.66,0.76,2.5c0.39,1.27,0.78,2.54,1.19,3.8
		c0.27,0.86,0.55,1.72,0.84,2.58c0.41,1.24,0.82,2.48,1.24,3.72c0.29,0.84,0.57,1.69,0.87,2.53c0.45,1.29,0.91,2.57,1.38,3.86
		c0.28,0.77,0.55,1.54,0.84,2.31c0.59,1.6,1.2,3.19,1.82,4.78c0.17,0.43,0.33,0.87,0.5,1.3c0.78,1.98,1.58,3.95,2.39,5.92
		c0.3,0.72,0.61,1.44,0.92,2.17c0.09,0.2,0.17,0.4,0.26,0.6l28.3-25.58C211.97,646.38,210.94,666.94,222.98,680.26z"></path>
            <path class="st1" d="M856.92,522.12c-0.24-24.12-2.96-47.64-7.93-70.32l-88.97,80.44c-1.51-3.48-3.59-6.79-6.28-9.76
		c-7.06-7.81-16.78-11.78-26.53-11.78c-2.81,0-5.61,0.33-8.36,0.99l-15.9,14.38c-14.55,13.16-37.01,12.02-50.17-2.53
		c-6.14-6.79-9.17-15.31-9.17-23.8c0-9.18,3.55-18.34,10.52-25.24l-0.03-0.03l63.71-57.6l79.67-72.02l5.15-4.65
		c-3.8-5.91-7.75-11.7-11.89-17.35c-48.56-66.32-120.34-114.57-203.37-132.81L414.21,346.59c-13.36,12.08-13.87,32.39-1.13,45.13
		c6.59,6.59,15.49,9.92,24.39,9.92c8.31,0,16.62-2.9,23.07-8.73l107.35-97.05c13.37-12.09,34.02-11.05,46.11,2.33
		c5.65,6.24,8.43,14.08,8.43,21.88c0,8.91-3.62,17.79-10.75,24.23l-9.23,8.34l0.17,0.18l-25.36,22.93
		c-10.87,9.83-11.29,26.36-0.92,36.72c5.26,5.82,12.49,8.77,19.76,8.77c6.36,0,12.75-2.27,17.84-6.87l-48.54,43.88
		c-14.26,12.89-16.36,34.87-4.13,49.69c10.85,13.16,28.89,16.47,43.32,9.41l-25.19,22.77c-14.93,13.51-16.1,36.56-2.59,51.5
		l21.2,23.45l-50.5,45.65L408.33,790.83c-10.03,9.06-25.51,8.28-34.57-1.75c-9.07-10.02-8.29-25.5,1.74-34.57l2.58-2.33l-0.06-0.07
		l17.38-15.71c12.47-11.28,13.44-30.53,2.17-43c-6.01-6.65-14.29-10.02-22.59-10.02c-7.28,0-14.59,2.59-20.41,7.86l-84.82,76.68
		c0.35,0.35,0.69,0.7,1.04,1.05c0.45,0.45,0.9,0.91,1.36,1.36c1.77,1.74,3.56,3.47,5.36,5.18c0.11,0.11,0.23,0.21,0.34,0.31
		c1.68,1.58,3.37,3.14,5.08,4.68c0.57,0.52,1.15,1.02,1.73,1.54c1.26,1.12,2.52,2.25,3.8,3.35c0.69,0.6,1.39,1.19,2.08,1.78
		c1.18,1.01,2.37,2.01,3.57,3.01c0.74,0.61,1.48,1.22,2.22,1.83c1.19,0.97,2.38,1.93,3.58,2.88c0.75,0.59,1.5,1.19,2.25,1.77
		c1.24,0.97,2.49,1.92,3.74,2.87c0.72,0.54,1.43,1.09,2.15,1.63c1.4,1.05,2.82,2.08,4.24,3.11c0.58,0.42,1.15,0.84,1.73,1.26
		c2.02,1.44,4.05,2.86,6.1,4.25c0.1,0.07,0.21,0.14,0.32,0.21c1.93,1.31,3.88,2.61,5.84,3.88c0.66,0.43,1.32,0.84,1.98,1.26
		c1.42,0.91,2.85,1.82,4.28,2.71c0.79,0.49,1.58,0.97,2.37,1.45c1.33,0.81,2.67,1.62,4.01,2.41c0.83,0.49,1.67,0.98,2.51,1.46
		c1.33,0.77,2.66,1.53,4,2.28c0.84,0.47,1.69,0.95,2.53,1.41c1.38,0.76,2.77,1.51,4.16,2.25c0.8,0.43,1.6,0.86,2.41,1.28
		c1.55,0.81,3.11,1.6,4.67,2.39c0.66,0.33,1.31,0.67,1.97,1c2.24,1.11,4.49,2.2,6.76,3.26c0,0,0,0,0.01,0
		c2.25,1.05,4.52,2.08,6.79,3.08c0.7,0.31,1.42,0.61,2.12,0.92c1.58,0.69,3.17,1.37,4.76,2.03c0.86,0.36,1.72,0.7,2.59,1.05
		c1.46,0.59,2.92,1.18,4.4,1.75c0.92,0.36,1.83,0.71,2.75,1.06c1.44,0.55,2.89,1.09,4.34,1.62c0.93,0.34,1.86,0.67,2.79,1.01
		c1.49,0.53,2.98,1.04,4.47,1.55c0.9,0.3,1.79,0.61,2.69,0.91c1.63,0.54,3.28,1.06,4.92,1.57c0.76,0.24,1.52,0.49,2.29,0.72
		c2.41,0.74,4.83,1.45,7.26,2.14c4.52,1.27,9.08,2.44,13.67,3.53l264.68-239.29c22.12,16.31,53.38,15.39,74.55-3.76l83.55-75.54
		c0.24-5.22,0.37-10.46,0.37-15.74C856.94,524.45,856.93,523.28,856.92,522.12z"></path>
            <path class="st1" d="M247.86,365.59l6.7-5.57c1.42,2.79,3.21,5.46,5.39,7.91c7.31,8.21,17.44,12.39,27.62,12.39
		c8.83,0,17.7-3.15,24.77-9.55l93.68-84.69c15.06-13.62,16.32-36.83,2.82-51.99c-6.87-7.72-16.24-11.87-25.79-12.34
		c-0.91-4.23-2.43-8.34-4.58-12.22c-1,0.43-1.99,0.86-2.98,1.29c-0.79,0.35-1.59,0.69-2.38,1.04c-1.44,0.65-2.88,1.31-4.31,1.97
		c-0.65,0.3-1.31,0.6-1.96,0.9c-1.97,0.93-3.92,1.87-5.87,2.84c-0.11,0.05-0.22,0.11-0.33,0.16c-2.07,1.03-4.12,2.07-6.16,3.14
		c-0.57,0.3-1.14,0.61-1.71,0.91c-1.45,0.77-2.9,1.54-4.34,2.33c-0.75,0.41-1.49,0.83-2.23,1.25c-1.25,0.7-2.5,1.4-3.74,2.11
		c-0.81,0.47-1.61,0.94-2.42,1.41c-1.17,0.68-2.33,1.37-3.49,2.06c-0.83,0.5-1.66,1.01-2.49,1.52c-1.12,0.69-2.23,1.37-3.35,2.07
		c-0.84,0.53-1.68,1.06-2.51,1.6c-1.09,0.7-2.17,1.4-3.25,2.11c-0.84,0.55-1.67,1.1-2.51,1.66c-1.07,0.71-2.13,1.44-3.19,2.16
		c-0.82,0.57-1.65,1.13-2.47,1.7c-1.06,0.74-2.11,1.49-3.16,2.24c-0.8,0.58-1.61,1.15-2.41,1.73c-1.06,0.77-2.12,1.56-3.17,2.35
		c-0.77,0.57-1.54,1.15-2.31,1.73c-1.1,0.84-2.19,1.69-3.28,2.53c-0.7,0.55-1.41,1.09-2.11,1.64c-1.28,1.02-2.55,2.05-3.82,3.08
		c-0.49,0.4-0.99,0.79-1.48,1.2c-1.73,1.42-3.44,2.86-5.14,4.32c-0.64,0.55-1.27,1.11-1.9,1.66c-1.07,0.93-2.15,1.86-3.21,2.81
		c-0.74,0.66-1.48,1.34-2.22,2.01c-0.94,0.85-1.88,1.7-2.81,2.56c-0.77,0.72-1.54,1.44-2.3,2.17c-0.88,0.83-1.76,1.66-2.62,2.49
		c-0.78,0.75-1.56,1.52-2.33,2.28c-0.84,0.82-1.68,1.65-2.51,2.48c-0.78,0.78-1.55,1.57-2.33,2.36c-0.81,0.83-1.61,1.66-2.41,2.49
		c-0.78,0.81-1.55,1.62-2.32,2.44c-0.78,0.83-1.56,1.67-2.33,2.5c-0.77,0.83-1.53,1.67-2.29,2.51c-0.76,0.84-1.51,1.68-2.25,2.53
		c-0.76,0.85-1.51,1.71-2.26,2.57c-0.73,0.84-1.45,1.69-2.18,2.54c-0.75,0.88-1.5,1.75-2.24,2.64c-0.71,0.85-1.4,1.7-2.1,2.55
		c-0.74,0.9-1.48,1.8-2.21,2.71c-0.67,0.84-1.33,1.68-1.99,2.53c-2.87,3.65-5.66,7.35-8.39,11.12c-0.57,0.79-1.15,1.58-1.72,2.37
		c-0.73,1.03-1.45,2.08-2.17,3.12c-0.57,0.82-1.14,1.63-1.7,2.45c-0.71,1.05-1.41,2.1-2.11,3.15c-0.55,0.83-1.11,1.66-1.65,2.5
		c-0.69,1.06-1.37,2.13-2.06,3.2c-0.53,0.84-1.07,1.68-1.6,2.52c-0.68,1.08-1.34,2.17-2.01,3.26c-0.51,0.84-1.02,1.68-1.53,2.53
		c-0.66,1.11-1.32,2.22-1.97,3.33c-0.49,0.84-0.97,1.68-1.45,2.52c-0.65,1.13-1.29,2.27-1.93,3.41c-0.46,0.83-0.91,1.66-1.37,2.49
		c-0.64,1.17-1.28,2.34-1.9,3.52c-0.42,0.8-0.83,1.6-1.25,2.4c-0.64,1.23-1.28,2.45-1.9,3.69c-0.37,0.73-0.73,1.46-1.09,2.19
		c-0.09,0.17-0.17,0.35-0.26,0.52c4.55,1.51,9.31,2.25,14.07,2.25C229.31,375.96,239.5,372.54,247.86,365.59z"></path>
        </g>
    </g>
</svg>