<svg xmlns:xlink="http://www.w3.org/1999/xlink" version="1.1" width="128" height="128" viewBox="0 0 256 256" id="图层_1" style="font-size: 128px; color: rgb(221, 154, 17);" x="0px" y="0px" xml:space="preserve" xmlns="http://www.w3.org/2000/svg">
    <style type="text/css" style="fill: rgb(221, 154, 17);">
	.st0{fill:#FD8725;}
	.st1{fill:#D16E1D;}
	.st2{fill:#1A1A1A;}
</style>
    <g transform="matrix(0.30378906,0,0,0.30378906,-27.927328,-24.831717)" style="fill: rgb(221, 154, 17);">
        <g style="fill: rgb(221, 154, 17);">
            <g style="fill: rgb(221, 154, 17);">
                <path class="st0" d="M577.52,310.47c-9.43-1.33-19.05-2.03-28.84-2.03c-12.31,0-24.37,1.09-36.09,3.17
			C416.71,328.66,343.9,412.44,343.9,513.23c0,89.96,58.03,166.37,138.69,193.87c6.68,0.94,13.46,1.56,20.33,1.83
			c2.79,0.11,5.59,0.17,8.41,0.17c113.1,0,204.79-91.69,204.79-204.78C716.12,414.38,658.14,337.99,577.52,310.47z" style="fill: rgb(221, 154, 17);"></path>
                <path class="st1" d="M535.18,312c88.04,21.8,153.03,97.89,153.03,188.42c0,107.53-91.68,194.7-204.78,194.7
			c-8.07,0-16.02-0.46-23.85-1.32c13.93,3.45,28.42,5.55,43.34,6.12c2.79,0.1,5.59,0.16,8.41,0.16
			c113.1,0,204.79-87.17,204.79-194.69C716.12,405.53,637.04,323.24,535.18,312z" style="fill: rgb(221, 154, 17);"></path>
                <path class="st2" d="M511.33,719.1c-57.37,0-111.31-22.34-151.87-62.91s-62.91-94.5-62.91-151.87s22.34-111.31,62.91-151.87
			s94.5-62.91,151.87-62.91s111.31,22.34,151.87,62.91c40.57,40.57,62.91,94.5,62.91,151.87s-22.34,111.31-62.91,151.87
			C622.64,696.76,568.7,719.1,511.33,719.1z M511.33,309.53c-107.4,0-194.78,87.38-194.78,194.78
			c0,107.4,87.38,194.78,194.78,194.78c107.4,0,194.78-87.38,194.78-194.78C706.12,396.91,618.74,309.53,511.33,309.53z" style="fill: rgb(221, 154, 17);"></path>
            </g>
            <g style="fill: rgb(221, 154, 17);">
                <g style="fill: rgb(221, 154, 17);">
                    <path class="st2" d="M568.62,305.04c-1,0-2.02-0.15-3.02-0.47c-5.26-1.67-8.18-7.29-6.51-12.55L594.26,181
				c1.67-5.27,7.29-8.18,12.55-6.51c5.26,1.67,8.18,7.29,6.51,12.55l-35.18,111.02C576.8,302.32,572.87,305.04,568.62,305.04z" style="fill: rgb(221, 154, 17);"></path>
                </g>
                <g style="fill: rgb(221, 154, 17);">
                    <path class="st2" d="M619.66,330.22c-1.76,0-3.54-0.46-5.16-1.44c-4.73-2.85-6.25-9-3.39-13.73l61.28-101.49
				c2.86-4.73,9-6.25,13.73-3.39s6.25,9,3.39,13.73l-61.28,101.49C626.35,328.5,623.05,330.22,619.66,330.22z" style="fill: rgb(221, 154, 17);"></path>
                </g>
                <g style="fill: rgb(221, 154, 17);">
                    <path class="st2" d="M697.22,201.79c-1.76,0-3.54-0.46-5.16-1.44c-4.73-2.85-6.25-9-3.39-13.73l24.11-39.94
				c2.85-4.73,9-6.25,13.73-3.39c4.73,2.85,6.25,9,3.39,13.73l-24.11,39.94C703.91,200.06,700.6,201.79,697.22,201.79z" style="fill: rgb(221, 154, 17);"></path>
                </g>
                <g style="fill: rgb(221, 154, 17);">
                    <path class="st2" d="M665.64,364.52c-2.55,0-5.1-0.97-7.05-2.9c-3.92-3.89-3.94-10.22-0.05-14.14l84.45-85.05
				c3.89-3.92,10.22-3.94,14.14-0.05c3.92,3.89,3.94,10.22,0.05,14.14l-84.45,85.05C670.78,363.54,668.21,364.52,665.64,364.52z" style="fill: rgb(221, 154, 17);"></path>
                </g>
                <g style="fill: rgb(221, 154, 17);">
                    <path class="st2" d="M697.24,410.23c-3.48,0-6.86-1.82-8.71-5.07c-2.73-4.8-1.04-10.91,3.76-13.63l105.24-59.72
				c4.8-2.73,10.91-1.04,13.63,3.76c2.73,4.8,1.04,10.91-3.76,13.63l-105.24,59.72C700.6,409.81,698.91,410.23,697.24,410.23z" style="fill: rgb(221, 154, 17);"></path>
                </g>
                <g style="fill: rgb(221, 154, 17);">
                    <path class="st2" d="M832,333.75c-3.48,0-6.86-1.82-8.71-5.07c-2.73-4.8-1.04-10.91,3.76-13.63l40.29-22.87
				c4.8-2.73,10.91-1.04,13.63,3.76c2.73,4.8,1.04,10.91-3.76,13.63l-40.29,22.87C835.37,333.32,833.67,333.75,832,333.75z" style="fill: rgb(221, 154, 17);"></path>
                </g>
                <g style="fill: rgb(221, 154, 17);">
                    <path class="st2" d="M718.86,463.1c-4.36,0-8.37-2.88-9.62-7.28c-1.5-5.31,1.59-10.84,6.9-12.34l116.77-32.99
				c5.31-1.5,10.84,1.59,12.34,6.9c1.5,5.31-1.59,10.84-6.9,12.34l-116.77,32.99C720.68,462.97,719.76,463.1,718.86,463.1z" style="fill: rgb(221, 154, 17);"></path>
                </g>
                <g style="fill: rgb(221, 154, 17);">
                    <path class="st2" d="M835.64,515.18H723.21c-5.52,0-10-4.48-10-10s4.48-10,10-10h112.43c5.52,0,10,4.48,10,10
				S841.16,515.18,835.64,515.18z" style="fill: rgb(221, 154, 17);"></path>
                </g>
                <g style="fill: rgb(221, 154, 17);">
                    <path class="st2" d="M924.62,515.18h-41.24c-5.52,0-10-4.48-10-10s4.48-10,10-10h41.24c5.52,0,10,4.48,10,10
				S930.15,515.18,924.62,515.18z" style="fill: rgb(221, 154, 17);"></path>
                </g>
                <g style="fill: rgb(221, 154, 17);">
                    <path class="st2" d="M835.64,602.87c-0.91,0-1.83-0.12-2.75-0.39l-112.43-32.12c-5.31-1.52-8.39-7.05-6.87-12.36
				s7.05-8.39,12.36-6.87l112.43,32.12c5.31,1.52,8.39,7.05,6.87,12.36C844,600.01,839.99,602.87,835.64,602.87z" style="fill: rgb(221, 154, 17);"></path>
                </g>
                <g style="fill: rgb(221, 154, 17);">
                    <path class="st2" d="M868.62,720.08c-1.77,0-3.56-0.47-5.18-1.45l-37.17-22.57c-4.72-2.87-6.22-9.02-3.36-13.74
				c2.87-4.72,9.02-6.23,13.74-3.36l37.17,22.57c4.72,2.87,6.22,9.02,3.36,13.74C875.29,718.36,872,720.08,868.62,720.08z" style="fill: rgb(221, 154, 17);"></path>
                </g>
                <g style="fill: rgb(221, 154, 17);">
                    <path class="st2" d="M797.09,676.65c-1.77,0-3.56-0.47-5.18-1.45l-98.64-59.89c-4.72-2.87-6.22-9.02-3.36-13.74
				s9.02-6.22,13.74-3.36l98.64,59.89c4.72,2.87,6.22,9.02,3.36,13.74C803.77,674.94,800.47,676.65,797.09,676.65z" style="fill: rgb(221, 154, 17);"></path>
                </g>
                <g style="fill: rgb(221, 154, 17);">
                    <path class="st2" d="M747.79,753.93c-2.67,0-5.33-1.06-7.3-3.16l-85.78-91.59c-3.78-4.03-3.57-10.36,0.46-14.13
				c4.03-3.78,10.36-3.57,14.13,0.46l85.78,91.59c3.78,4.03,3.57,10.36-0.46,14.13C752.69,753.04,750.23,753.93,747.79,753.93z" style="fill: rgb(221, 154, 17);"></path>
                </g>
                <g style="fill: rgb(221, 154, 17);">
                    <path class="st2" d="M718.44,866.38c-3.41,0-6.74-1.75-8.61-4.9l-21.68-36.51c-2.82-4.75-1.26-10.88,3.49-13.7
				c4.75-2.82,10.88-1.26,13.7,3.49l21.68,36.51c2.82,4.75,1.26,10.88-3.49,13.7C721.94,865.93,720.18,866.38,718.44,866.38z" style="fill: rgb(221, 154, 17);"></path>
                </g>
                <g style="fill: rgb(221, 154, 17);">
                    <path class="st2" d="M675.08,793.37c-3.41,0-6.74-1.75-8.61-4.9l-56.93-95.86c-2.82-4.75-1.26-10.88,3.49-13.7
				c4.75-2.82,10.88-1.26,13.7,3.49l56.93,95.86c2.82,4.75,1.26,10.88-3.49,13.7C678.58,792.92,676.82,793.37,675.08,793.37z" style="fill: rgb(221, 154, 17);"></path>
                </g>
                <g style="fill: rgb(221, 154, 17);">
                    <path class="st2" d="M602.47,836.3c-4.31,0-8.29-2.81-9.58-7.16l-34.47-116.22c-1.57-5.29,1.45-10.86,6.74-12.43
				c5.29-1.57,10.86,1.45,12.43,6.74l34.47,116.22c1.57,5.29-1.45,10.86-6.74,12.43C604.37,836.17,603.41,836.3,602.47,836.3z" style="fill: rgb(221, 154, 17);"></path>
                </g>
                <g style="fill: rgb(221, 154, 17);">
                    <path class="st2" d="M512,920.92c-5.51,0-9.98-4.46-10-9.97l-0.12-35.73c-0.02-5.52,4.44-10.01,9.97-10.03c0.01,0,0.02,0,0.03,0
				c5.51,0,9.98,4.46,10,9.97l0.12,35.73c0.02,5.52-4.44,10.01-9.97,10.03C512.02,920.92,512.01,920.92,512,920.92z" style="fill: rgb(221, 154, 17);"></path>
                </g>
                <g style="fill: rgb(221, 154, 17);">
                    <path class="st2" d="M511.74,841.72c-5.51,0-9.98-4.46-10-9.97l-0.4-121.65c-0.02-5.52,4.44-10.01,9.97-10.03
				c0.01,0,0.02,0,0.03,0c5.51,0,9.98,4.46,10,9.97l0.4,121.65c0.02,5.52-4.44,10.01-9.97,10.03
				C511.76,841.72,511.75,841.72,511.74,841.72z" style="fill: rgb(221, 154, 17);"></path>
                </g>
                <g style="fill: rgb(221, 154, 17);">
                    <path class="st2" d="M511.33,305.04c-5.52,0-10-4.48-10-10v-119.6c0-5.52,4.48-10,10-10s10,4.48,10,10v119.6
				C521.33,300.56,516.86,305.04,511.33,305.04z" style="fill: rgb(221, 154, 17);"></path>
                </g>
                <g style="fill: rgb(221, 154, 17);">
                    <path class="st2" d="M511.33,145.98c-5.52,0-10-4.48-10-10V95.25c0-5.52,4.48-10,10-10s10,4.48,10,10v40.73
				C521.33,141.5,516.86,145.98,511.33,145.98z" style="fill: rgb(221, 154, 17);"></path>
                </g>
                <g style="fill: rgb(221, 154, 17);">
                    <path class="st2" d="M457.93,305.04c-4.24,0-8.18-2.72-9.53-6.98l-35.18-111.02c-1.67-5.26,1.25-10.89,6.51-12.55
				c5.26-1.67,10.89,1.25,12.55,6.51l35.18,111.02c1.67,5.26-1.25,10.89-6.51,12.55C459.95,304.89,458.93,305.04,457.93,305.04z" style="fill: rgb(221, 154, 17);"></path>
                </g>
                <g style="fill: rgb(221, 154, 17);">
                    <path class="st2" d="M406.89,330.22c-3.39,0-6.69-1.72-8.57-4.83L337.04,223.9c-2.85-4.73-1.34-10.87,3.39-13.73
				c4.73-2.85,10.88-1.34,13.73,3.39l61.28,101.49c2.85,4.73,1.34,10.87-3.39,13.73C410.44,329.76,408.65,330.22,406.89,330.22z" style="fill: rgb(221, 154, 17);"></path>
                </g>
                <g style="fill: rgb(221, 154, 17);">
                    <path class="st2" d="M329.34,201.79c-3.39,0-6.69-1.72-8.57-4.83l-24.11-39.94c-2.85-4.73-1.34-10.87,3.39-13.73
				c4.73-2.85,10.88-1.34,13.73,3.39l24.11,39.94c2.85,4.73,1.34,10.87-3.39,13.73C332.88,201.32,331.1,201.79,329.34,201.79z" style="fill: rgb(221, 154, 17);"></path>
                </g>
                <g style="fill: rgb(221, 154, 17);">
                    <path class="st2" d="M360.92,364.52c-2.57,0-5.14-0.99-7.1-2.95l-84.45-85.05c-3.89-3.92-3.87-10.25,0.05-14.14
				c3.92-3.89,10.25-3.87,14.14,0.05l84.45,85.05c3.89,3.92,3.87,10.25-0.05,14.14C366.01,363.56,363.46,364.52,360.92,364.52z" style="fill: rgb(221, 154, 17);"></path>
                </g>
                <g style="fill: rgb(221, 154, 17);">
                    <path class="st2" d="M329.32,410.23c-1.67,0-3.37-0.42-4.93-1.3L219.16,349.2c-4.8-2.73-6.49-8.83-3.76-13.63
				c2.73-4.8,8.83-6.49,13.63-3.76l105.24,59.72c4.8,2.73,6.49,8.83,3.76,13.63C336.19,408.41,332.8,410.23,329.32,410.23z" style="fill: rgb(221, 154, 17);"></path>
                </g>
                <g style="fill: rgb(221, 154, 17);">
                    <path class="st2" d="M194.55,333.75c-1.67,0-3.37-0.42-4.93-1.3l-40.29-22.87c-4.8-2.73-6.49-8.83-3.76-13.63
				c2.73-4.8,8.83-6.49,13.63-3.76l40.29,22.87c4.8,2.73,6.49,8.83,3.76,13.63C201.42,331.92,198.04,333.75,194.55,333.75z" style="fill: rgb(221, 154, 17);"></path>
                </g>
                <g style="fill: rgb(221, 154, 17);">
                    <path class="st2" d="M307.7,463.1c-0.9,0-1.82-0.12-2.72-0.38L188.2,429.73c-5.31-1.5-8.41-7.03-6.9-12.34
				c1.5-5.32,7.03-8.4,12.34-6.9l116.77,32.99c5.31,1.5,8.41,7.03,6.9,12.34C316.07,460.22,312.06,463.1,307.7,463.1z" style="fill: rgb(221, 154, 17);"></path>
                </g>
                <g style="fill: rgb(221, 154, 17);">
                    <path class="st2" d="M303.35,515.18H190.92c-5.52,0-10-4.48-10-10s4.48-10,10-10h112.43c5.52,0,10,4.48,10,10
				S308.87,515.18,303.35,515.18z" style="fill: rgb(221, 154, 17);"></path>
                </g>
                <g style="fill: rgb(221, 154, 17);">
                    <path class="st2" d="M143.17,515.18h-41.24c-5.52,0-10-4.48-10-10s4.48-10,10-10h41.24c5.52,0,10,4.48,10,10
				S148.69,515.18,143.17,515.18z" style="fill: rgb(221, 154, 17);"></path>
                </g>
                <g style="fill: rgb(221, 154, 17);">
                    <path class="st2" d="M190.92,602.87c-4.35,0-8.36-2.86-9.61-7.26c-1.52-5.31,1.56-10.84,6.87-12.36l112.43-32.12
				c5.31-1.52,10.85,1.56,12.36,6.87s-1.56,10.84-6.87,12.36l-112.43,32.12C192.75,602.75,191.82,602.87,190.92,602.87z" style="fill: rgb(221, 154, 17);"></path>
                </g>
                <g style="fill: rgb(221, 154, 17);">
                    <path class="st2" d="M157.94,720.08c-3.38,0-6.68-1.71-8.56-4.81c-2.87-4.72-1.36-10.87,3.36-13.74l37.17-22.57
				c4.72-2.86,10.87-1.36,13.74,3.36c2.87,4.72,1.36,10.87-3.36,13.74l-37.17,22.57C161.5,719.61,159.71,720.08,157.94,720.08z" style="fill: rgb(221, 154, 17);"></path>
                </g>
                <g style="fill: rgb(221, 154, 17);">
                    <path class="st2" d="M229.46,676.65c-3.38,0-6.68-1.71-8.56-4.81c-2.87-4.72-1.36-10.87,3.36-13.74l98.64-59.89
				c4.72-2.86,10.87-1.36,13.74,3.36c2.87,4.72,1.36,10.87-3.36,13.74l-98.64,59.89C233.02,676.18,231.23,676.65,229.46,676.65z" style="fill: rgb(221, 154, 17);"></path>
                </g>
                <g style="fill: rgb(221, 154, 17);">
                    <path class="st2" d="M278.77,753.93c-2.45,0-4.9-0.89-6.83-2.7c-4.03-3.78-4.24-10.1-0.46-14.13l85.78-91.59
				c3.78-4.03,10.1-4.24,14.13-0.46c4.03,3.78,4.24,10.1,0.46,14.13l-85.78,91.59C284.1,752.87,281.44,753.93,278.77,753.93z" style="fill: rgb(221, 154, 17);"></path>
                </g>
                <g style="fill: rgb(221, 154, 17);">
                    <path class="st2" d="M308.11,866.38c-1.74,0-3.5-0.45-5.1-1.4c-4.75-2.82-6.31-8.96-3.49-13.7l21.68-36.51
				c2.82-4.75,8.96-6.31,13.7-3.49c4.75,2.82,6.31,8.96,3.49,13.7l-21.68,36.51C314.85,864.64,311.53,866.38,308.11,866.38z" style="fill: rgb(221, 154, 17);"></path>
                </g>
                <g style="fill: rgb(221, 154, 17);">
                    <path class="st2" d="M351.48,793.37c-1.74,0-3.5-0.45-5.1-1.4c-4.75-2.82-6.31-8.96-3.49-13.7l56.93-95.86
				c2.82-4.75,8.96-6.31,13.7-3.49c4.75,2.82,6.31,8.96,3.49,13.7l-56.93,95.86C358.21,791.62,354.89,793.37,351.48,793.37z" style="fill: rgb(221, 154, 17);"></path>
                </g>
                <g style="fill: rgb(221, 154, 17);">
                    <path class="st2" d="M424.09,836.3c-0.94,0-1.9-0.13-2.85-0.42c-5.29-1.57-8.31-7.14-6.74-12.43l34.47-116.22
				c1.57-5.29,7.14-8.31,12.43-6.74c5.29,1.57,8.31,7.14,6.74,12.43l-34.47,116.22C432.38,833.49,428.4,836.3,424.09,836.3z" style="fill: rgb(221, 154, 17);"></path>
                </g>
            </g>
        </g>
    </g>
</svg>